<?xml version="1.0" encoding="utf-8" standalone="yes"?>
<!DOCTYPE svg PUBLIC "-//W3C//DTD SVG 1.1//EN" "http://www.w3.org/Graphics/SVG/1.1/DTD/svg11.dtd">
<svg style="fill:none;stroke:none;fill-rule:evenodd;clip-rule:evenodd;stroke-linecap:round;stroke-linejoin:round;stroke-miterlimit:1.5;" version="1.1" xmlns="http://www.w3.org/2000/svg" xmlns:xlink="http://www.w3.org/1999/xlink" width="605" height="393" viewBox="0 0 605 393"><style class="text-font-style fontImports" data-font-family="Roboto">@import url(https://fonts.googleapis.com/css2?family=Roboto:wght@400;700&amp;amp;display=block);</style><g id="items" style="isolation: isolate"><g id="blend" style="mix-blend-mode: normal"><g id="g-root-cp_1_g-1_145hgxz140vfup-fill" data-item-order="-165419" transform="translate(409.5, 101)"><g id="cp_1_g-1_145hgxz140vfup-fill-merged" stroke="none" fill="#a6da37" fill-opacity="1"><g><path d="M71 64 H10L40.5 10L71 64"></path></g></g></g><g id="g-root-cp_2_g-2_qu0ykn140vhfm-fill" data-item-order="-165415" transform="translate(379, 155)"><g id="cp_2_g-2_qu0ykn140vhfm-fill-merged" stroke="none" fill="#43dd93" fill-opacity="1"><g><path d="M132 64 H10L40.5 10 H101.5L132 64"></path></g></g></g><g id="g-root-cp_3_g-3_hydybr140vi8b-fill" data-item-order="-165411" transform="translate(348.5, 209)"><g id="cp_3_g-3_hydybr140vi8b-fill-merged" stroke="none" fill="#4f91fc" fill-opacity="1"><g><path d="M193 64 H10L40.5 10 H162.5L193 64"></path></g></g></g><g id="g-root-cp_4_g-4_hydybr140vi8c-fill" data-item-order="-165407" transform="translate(318, 263)"><g id="cp_4_g-4_hydybr140vi8c-fill-merged" stroke="none" fill="#b7b7b7" fill-opacity="1"><g><path d="M254 64 H10L40.5 10 H223.5L254 64"></path></g></g></g><g id="g-root-sy_-1_Line_4njx1j140vgnh-fill" data-item-order="-165350" transform="translate(284, 287)"></g><g id="g-root-sy_-1_Line_1_7qex3140vhfq-fill" data-item-order="-165346" transform="translate(284, 233)"></g><g id="g-root-sy_-1_Line_2_7qex3140vhfr-fill" data-item-order="-165342" transform="translate(284, 179)"></g><g id="g-root-sy_-1_Line_3_7qex3140vhfs-fill" data-item-order="-165338" transform="translate(284, 125)"></g><g id="g-root-tx_pc_1ut0yrr140vi0x-fill" data-item-order="0" transform="translate(172.5, 38)"><g id="tx_pc_1ut0yrr140vi0x-fill-merged" stroke="none" fill="#f4f4f4" fill-opacity="1"><g><text style="font: bold 20px Roboto, sans-serif; white-space: pre;" transform="translate(130, 22)" font-weight="bold" font-size="20px" font-family="Roboto, sans-serif"><tspan x="-112.99" y="12" dominant-baseline="ideographic">PCスキル習得ピラミッド</tspan></text></g></g></g><g id="g-root-tx__18mjx8n140vh8q-fill" data-item-order="0" transform="translate(170, 104)"><g id="tx__18mjx8n140vh8q-fill-merged" stroke="none" fill="#a6da37" fill-opacity="1"><g><text style="font: bold 12px Roboto, sans-serif; white-space: pre;" transform="translate(70, 22)" font-weight="bold" font-size="12px" font-family="Roboto, sans-serif"><tspan x="-50" y="7" dominant-baseline="ideographic">資格取得</tspan></text></g></g></g><g id="g-root-ic_lang_v2z8qv140wwei-fill" data-item-order="0" transform="translate(242, 110)"></g><g id="g-root-tx_pc_vbpvyf140vfnv-fill" data-item-order="0" transform="translate(62, 134)"><g id="tx_pc_vbpvyf140vfnv-fill-merged" stroke="none" fill="#f4f4f4" fill-opacity="1"><g><text style="font: 10.5px Roboto, sans-serif; white-space: pre;" transform="translate(178, 16)" font-size="10.5px" font-family="Roboto, sans-serif"><tspan x="-162.47" y="6" dominant-baseline="ideographic">業界で認められたPCスキルの認定</tspan></text></g></g></g><g id="g-root-ic_word_13zv75z140yb62-fill" data-item-order="0" transform="translate(242, 164)"></g><g id="g-root-tx_wordexce_i09dl3140vh8s-fill" data-item-order="0" transform="translate(158, 158)"><g id="tx_wordexce_i09dl3140vh8s-fill-merged" stroke="none" fill="#43dd93" fill-opacity="1"><g><text style="font: bold 12px Roboto, sans-serif; white-space: pre;" transform="translate(82, 22)" font-weight="bold" font-size="12px" font-family="Roboto, sans-serif"><tspan x="-63.23" y="7" dominant-baseline="ideographic">Word/Excel</tspan></text></g></g></g><g id="g-root-tx__4pfcav140vfnx-fill" data-item-order="0" transform="translate(86, 188)"><g id="tx__4pfcav140vfnx-fill-merged" stroke="none" fill="#f4f4f4" fill-opacity="1"><g><text style="font: 10.5px Roboto, sans-serif; white-space: pre;" transform="translate(154, 16)" font-size="10.5px" font-family="Roboto, sans-serif"><tspan x="-138.5" y="6" dominant-baseline="ideographic">文書作成とデータ分析の習得</tspan></text></g></g></g><g id="g-root-ic_spor_1d3mdjb140ya6k-fill" data-item-order="0" transform="translate(242, 218)"></g><g id="g-root-tx__1qf2vwn140vh1q-fill" data-item-order="0" transform="translate(170, 212)"><g id="tx__1qf2vwn140vh1q-fill-merged" stroke="none" fill="#4f91fc" fill-opacity="1"><g><text style="font: bold 12px Roboto, sans-serif; white-space: pre;" transform="translate(70, 22)" font-weight="bold" font-size="12px" font-family="Roboto, sans-serif"><tspan x="-50" y="7" dominant-baseline="ideographic">基礎練習</tspan></text></g></g></g><g id="g-root-tx__1lz9ds7140vhtz-fill" data-item-order="0" transform="translate(98, 242)"><g id="tx__1lz9ds7140vhtz-fill-merged" stroke="none" fill="#f4f4f4" fill-opacity="1"><g><text style="font: 10.5px Roboto, sans-serif; white-space: pre;" transform="translate(142, 16)" font-size="10.5px" font-family="Roboto, sans-serif"><tspan x="-128" y="6" dominant-baseline="ideographic">タイピングやマウスの練習</tspan></text></g></g></g><g id="g-root-tx_pc_1ha2rd3140wu0w-fill" data-item-order="0" transform="translate(170, 266)"><g id="tx_pc_1ha2rd3140wu0w-fill-merged" stroke="none" fill="#b7b7b7" fill-opacity="1"><g><text style="font: bold 12px Roboto, sans-serif; white-space: pre;" transform="translate(70, 22)" font-weight="bold" font-size="12px" font-family="Roboto, sans-serif"><tspan x="-53.59" y="7" dominant-baseline="ideographic">PC初心者</tspan></text></g></g></g><g id="g-root-ic_1_mcc16v140zo5q-fill" data-item-order="0" transform="translate(242, 272)"></g><g id="g-root-tx_pc_18efr47140wutl-fill" data-item-order="0" transform="translate(110, 296)"><g id="tx_pc_18efr47140wutl-fill-merged" stroke="none" fill="#f4f4f4" fill-opacity="1"><g><text style="font: 10.5px Roboto, sans-serif; white-space: pre;" transform="translate(130, 16)" font-size="10.5px" font-family="Roboto, sans-serif"><tspan x="-109.97" y="6" dominant-baseline="ideographic">基本的なPC操作の学習</tspan></text></g></g></g><g id="g-root-cp_1_g-1_145hgxz140vfup-stroke" data-item-order="-165419" transform="translate(409.5, 101)"><g id="cp_1_g-1_145hgxz140vfup-stroke" fill="none" stroke-linecap="round" stroke-linejoin="round" stroke-miterlimit="4" stroke="#2c2c2c" stroke-width="2" stroke-opacity="1"><g><path d="M 71 64L 10 64L 40.5 10L 71 64Z"></path></g></g></g><g id="g-root-cp_2_g-2_qu0ykn140vhfm-stroke" data-item-order="-165415" transform="translate(379, 155)"><g id="cp_2_g-2_qu0ykn140vhfm-stroke" fill="none" stroke-linecap="round" stroke-linejoin="round" stroke-miterlimit="4" stroke="#2c2c2c" stroke-width="2" stroke-opacity="1"><g><path d="M 132 64L 10 64L 40.5 10L 101.5 10L 132 64Z"></path></g></g></g><g id="g-root-cp_3_g-3_hydybr140vi8b-stroke" data-item-order="-165411" transform="translate(348.5, 209)"><g id="cp_3_g-3_hydybr140vi8b-stroke" fill="none" stroke-linecap="round" stroke-linejoin="round" stroke-miterlimit="4" stroke="#2c2c2c" stroke-width="2" stroke-opacity="1"><g><path d="M 193 64L 10 64L 40.5 10L 162.5 10L 193 64Z"></path></g></g></g><g id="g-root-cp_4_g-4_hydybr140vi8c-stroke" data-item-order="-165407" transform="translate(318, 263)"><g id="cp_4_g-4_hydybr140vi8c-stroke" fill="none" stroke-linecap="round" stroke-linejoin="round" stroke-miterlimit="4" stroke="#2c2c2c" stroke-width="2" stroke-opacity="1"><g><path d="M 254 64L 10 64L 40.5 10L 223.5 10L 254 64Z"></path></g></g></g><g id="g-root-sy_-1_Line_4njx1j140vgnh-stroke" data-item-order="-165350" transform="translate(284, 287)"><g id="sy_-1_Line_4njx1j140vgnh-stroke" fill="none" stroke-linecap="round" stroke-linejoin="round" stroke-miterlimit="4" stroke="#f4f4f4" stroke-width="2" stroke-opacity="1"><g><path d="M 10 10L 43 10"></path><path d="M 37 16.5L 43.5 10L 37 3.5" stroke-dasharray="none"></path></g></g></g><g id="g-root-sy_-1_Line_1_7qex3140vhfq-stroke" data-item-order="-165346" transform="translate(284, 233)"><g id="sy_-1_Line_1_7qex3140vhfq-stroke" fill="none" stroke-linecap="round" stroke-linejoin="round" stroke-miterlimit="4" stroke="#f4f4f4" stroke-width="2" stroke-opacity="1"><g><path d="M 10 10L 74 10"></path><path d="M 68 16.5L 74.5 10L 68 3.5" stroke-dasharray="none"></path></g></g></g><g id="g-root-sy_-1_Line_2_7qex3140vhfr-stroke" data-item-order="-165342" transform="translate(284, 179)"><g id="sy_-1_Line_2_7qex3140vhfr-stroke" fill="none" stroke-linecap="round" stroke-linejoin="round" stroke-miterlimit="4" stroke="#f4f4f4" stroke-width="2" stroke-opacity="1"><g><path d="M 10 10L 105 10"></path><path d="M 99 16.5L 105.5 10L 99 3.5" stroke-dasharray="none"></path></g></g></g><g id="g-root-sy_-1_Line_3_7qex3140vhfs-stroke" data-item-order="-165338" transform="translate(284, 125)"><g id="sy_-1_Line_3_7qex3140vhfs-stroke" fill="none" stroke-linecap="round" stroke-linejoin="round" stroke-miterlimit="4" stroke="#f4f4f4" stroke-width="2" stroke-opacity="1"><g><path d="M 10 10L 136 10"></path><path d="M 130 16.5L 136.5 10L 130 3.5" stroke-dasharray="none"></path></g></g></g><g id="g-root-tx_pc_1ut0yrr140vi0x-stroke" data-item-order="0" transform="translate(172.5, 38)"></g><g id="g-root-tx__18mjx8n140vh8q-stroke" data-item-order="0" transform="translate(170, 104)"></g><g id="g-root-ic_lang_v2z8qv140wwei-stroke" data-item-order="0" transform="translate(242, 110)"><g id="ic_lang_v2z8qv140wwei-stroke" fill="none" stroke-linecap="round" stroke-linejoin="round" stroke-miterlimit="4" stroke="#f4f4f4" stroke-width="2" stroke-opacity="1"><g><path d="M 36.6875 18.5625L 36.6875 12.6875C 36.6875 11.6875 35.9375 10.9375 34.9375 10.9375L 12.68745 10.9375C 11.68745 10.9375 10.937461 11.6875 10.937461 12.6875L 10.937461 29.8125C 10.937461 30.8125 11.68745 31.5625 12.68745 31.5625L 27.1875 31.5625M 10 10M 20.937426 31.5625L 20.062426 36.6875M 26.0625 36.6875L 18.687462 36.6875M 16.750338 19.249989L 27.875374 19.249989M 19.500275 19.249989C 19.500275 22.249987 23.00025 25.375 26.50025 26.375M 25.125374 19.249989C 25.125374 22.249987 21.625299 25.375 18.125299 26.375M 10 10M 20.875401 15.125L 22.250401 16.5M 10 10M 37.328251 32.03125L 38.203247 38.402126C 38.328251 39.152122 37.453251 39.652126 36.828251 39.152122L 34.703251 36.90625L 32.578247 39.152122C 32.078251 39.652126 31.078251 39.152122 31.203251 38.402126L 32.078251 32.03125M 34.703873 32.902122C 32.287624 32.902122 30.328875 30.943375 30.328875 28.527124C 30.328875 26.110874 32.287624 24.152124 34.703873 24.152124C 37.120125 24.152124 39.078873 26.110874 39.078873 28.527124C 39.078873 30.943375 37.120125 32.902122 34.703873 32.902122ZM 34.703873 30.134125C 33.81625 30.134125 33.096748 29.414625 33.096748 28.527124C 33.096748 27.639626 33.81625 26.920126 34.703873 26.920126C 35.591377 26.920126 36.310875 27.639626 36.310875 28.527124C 36.310875 29.414625 35.591377 30.134125 34.703873 30.134125Z"></path></g></g></g><g id="g-root-tx_pc_vbpvyf140vfnv-stroke" data-item-order="0" transform="translate(62, 134)"></g><g id="g-root-ic_word_13zv75z140yb62-stroke" data-item-order="0" transform="translate(242, 164)"><g id="ic_word_13zv75z140yb62-stroke" fill="none" stroke-linecap="round" stroke-linejoin="round" stroke-miterlimit="4" stroke="#f4f4f4" stroke-width="2" stroke-opacity="1"><g><path d="M 18.125 32.5L 18.125 36.25C 18.125 36.940353 18.684645 37.5 19.375 37.5L 38.125 37.5C 38.815353 37.5 39.375 36.940353 39.375 36.25L 39.375 13.75C 39.375 13.059644 38.815353 12.5 38.125 12.5L 19.375 12.5C 18.684645 12.5 18.125 13.059644 18.125 13.75L 18.125 17.5M 25.625 25L 39.375 25M 25.625 18.75L 39.375 18.75M 25.625 31.25L 39.375 31.25M 11.875 17.5L 24.375 17.5C 24.375 17.5 25.625 17.5 25.625 18.75L 25.625 31.25C 25.625 31.25 25.625 32.5 24.375 32.5L 11.875 32.5C 11.875 32.5 10.625 32.5 10.625 31.25L 10.625 18.75C 10.625 18.75 10.625 17.5 11.875 17.5M 13.75 21.25L 15.625 28.75L 18.125 21.25L 20.625 28.75L 22.5 21.25"></path></g></g></g><g id="g-root-tx_wordexce_i09dl3140vh8s-stroke" data-item-order="0" transform="translate(158, 158)"></g><g id="g-root-tx__4pfcav140vfnx-stroke" data-item-order="0" transform="translate(86, 188)"></g><g id="g-root-ic_spor_1d3mdjb140ya6k-stroke" data-item-order="0" transform="translate(242, 218)"><g id="ic_spor_1d3mdjb140ya6k-stroke" fill="none" stroke-linecap="round" stroke-linejoin="round" stroke-miterlimit="4" stroke="#f4f4f4" stroke-width="2" stroke-opacity="1"><g><path d="M 10 10M 19.8272 19.624962L 20.202175 17.374962C 20.202175 17.374962 22.077187 15.499963 24.077126 17.374962C 26.077126 19.249962 24.077126 21.249964 24.077126 21.249964L 22.077175 21.749962M 24.077126 21.249964C 24.077126 21.249964 25.952126 20.249962 26.452126 22.75C 26.827126 24.375 26.077126 24.25 19.577175 26.125M 20.205074 17.374962C 20.205074 17.374962 21.205088 15.499963 18.705088 14.999963C 16.955088 14.624963 17.202211 15.874962 15.702212 21.999962M 10 10M 19.702225 26L 19.077225 26.625C 17.952225 27.75 16.202225 27.75 15.077225 26.625C 13.952225 25.5 13.952225 23.75 15.077225 22.625L 15.702225 21.999975L 19.702225 26ZM 33.4375 31.5625C 31.366375 31.5625 29.6875 29.883625 29.6875 27.8125C 29.6875 25.741375 31.366375 24.0625 33.4375 24.0625C 35.508625 24.0625 37.1875 25.741375 37.1875 27.8125C 37.1875 29.883625 35.508625 31.5625 33.4375 31.5625ZM 27.8125 39.0625C 27.8125 35.9375 30.3125 33.4375 33.4375 33.4375C 36.5625 33.4375 39.0625 35.9375 39.0625 39.0625M 36.6875 20.1875L 36.6875 12.6875C 36.6875 11.6875 35.9375 10.9375 34.9375 10.9375L 12.68755 10.9375C 11.68755 10.9375 10.937557 11.6875 10.937557 12.6875L 10.937557 29.8125C 10.937557 30.8125 11.68755 31.5625 12.68755 31.5625L 25.3125 31.5625M 10 10M 20.812525 31.5625L 19.937538 36.5625M 24.1875 36.5625L 18.68755 36.5625"></path></g></g></g><g id="g-root-tx__1qf2vwn140vh1q-stroke" data-item-order="0" transform="translate(170, 212)"></g><g id="g-root-tx__1lz9ds7140vhtz-stroke" data-item-order="0" transform="translate(98, 242)"></g><g id="g-root-tx_pc_1ha2rd3140wu0w-stroke" data-item-order="0" transform="translate(170, 266)"></g><g id="g-root-ic_1_mcc16v140zo5q-stroke" data-item-order="0" transform="translate(242, 272)"><g id="ic_1_mcc16v140zo5q-stroke" fill="none" stroke-linecap="round" stroke-linejoin="round" stroke-miterlimit="4" stroke="#f4f4f4" stroke-width="2" stroke-opacity="1"><g><path d="M 25.875 25.5625L 13.374937 25.5625L 13.374937 39.0625L 23.624876 39.0625M 10 10M 16.749874 10.9375L 20.499876 22.1875M 19.21875 18.554688C 19.21875 18.554688 15.499875 20.236551 15.499875 25.5625M 10 10M 20.874937 25.5625L 20.874937 39.0625M 33.937374 18.086088C 35.490623 18.086088 36.749874 16.8269 36.749874 15.273601C 36.749874 13.7203 35.490623 12.461087 33.937374 12.461087C 32.384125 12.461087 31.124876 13.7203 31.124876 15.273601C 31.124876 16.8269 32.384125 18.086088 33.937374 18.086088ZM 33.874874 39.0625C 34.874874 39.0625 35.749874 38.1875 35.749874 37.1875L 35.749874 21.812513C 35.749874 21.062511 35.374874 20.437511 34.749874 20.187513C 34.124874 19.812511 33.374874 19.937511 32.874874 20.312511L 31.499874 21.187513C 30.374874 21.937511 28.374874 21.812513 26.124876 21.812513C 25.124876 21.812513 24.249876 22.6875 24.249876 23.6875C 24.249876 24.6875 25.124876 25.5625 26.124876 25.5625L 29.374874 25.5625C 30.249874 25.5625 31.124876 25.4375 31.999874 25.0625L 31.999874 37.1875C 31.999874 38.3125 32.749874 39.0625 33.874874 39.0625Z"></path></g></g></g><g id="g-root-tx_pc_18efr47140wutl-stroke" data-item-order="0" transform="translate(110, 296)"></g></g></g><path id="wv7ce1314uvmz1" d="M65.283 12.757a.35.35 0 0 0 .584.157l5.203-5.141-6.183 3.523.396 1.461zm-2.216-11.7a.35.35 0 0 0-.522.305v3.111l3.276-1.868-2.754-1.548zm3.728 2.105l-4.25 2.421v2.445l6.391-3.644-2.141-1.222zm4.708 3.303a.35.35 0 0 0 0-.609l-1.592-.9-7.365 4.199v1.782a.35.35 0 0 0 .523.305l8.435-4.777z M44.542 2.513c0-.433.355-.783.792-.783s.792.35.792.783-.355.783-.792.783-.792-.35-.792-.783zm59.171 0c0-.433.355-.783.792-.783s.792.35.792.783-.355.783-.792.783-.792-.35-.792-.783zm-85.951 7.636h-1.27v-.487c-.276.201-.864.609-1.881.609-1.202 0-2.274-.794-2.137-2.078.118-1.106 1.153-1.584 1.848-1.727l2.17-.345c0-.539-.29-.956-1.064-1.006s-1.21.305-1.571 1.017l-1.124-.605c1.218-2.631 5.029-1.764 5.029.414v4.207zm-1.27-2.86c.006.396-.062 1.112-.819 1.59-.587.37-1.841.299-1.903-.395-.049-.555.461-.791.906-.898l1.816-.297zm72.662 2.86h-1.27v-.487c-.276.201-.864.609-1.881.609-1.202 0-2.274-.794-2.137-2.078.118-1.106 1.153-1.584 1.848-1.727l2.17-.345c0-.539-.29-.956-1.064-1.006s-1.21.305-1.571 1.017l-1.124-.605c1.218-2.631 5.029-1.764 5.029.414v4.207zm-1.27-2.86c.006.396-.062 1.112-.82 1.59-.587.37-1.841.299-1.903-.395-.049-.555.461-.791.906-.898l1.816-.297zM99.096 10.149H97.85v-8.45h1.246v4.895l2.68-2.559h1.738l-2.633 2.535 2.715 3.578h-1.556l-2.077-2.707-.867.844v1.863zm6.053-6.114h-1.255v6.113h1.255V4.035zm-59.2 0h-1.255v6.113h1.255V4.035zm5.584 6.113V1.697h1.255v2.695c.361-.346 1-.485 1.47-.485 1.452 0 2.477 1.082 2.457 2.448v3.792h-1.27v-3.68c0-.408-.214-1.339-1.315-1.339-.968 0-1.342.756-1.342 1.339v3.681h-1.255zm-4.76-4.894V4.039h.621a.45.45 0 0 0 .45-.45v-.855h1.251v1.305h1.309v1.215h-1.309v3.109c0 .293.105.664.648.664.365 0 .531-.035.736-.07v1.137s-.361.113-.857.113c-1.398 0-1.777-1.051-1.777-1.788V5.254h-1.071zM36.528 4.039h-1.394l2.191 6.106h1.125l1.234-3.918 1.238 3.918h1.129l2.188-6.106h-1.383l-1.359 3.93-1.256-3.93h-1.124l-1.242 3.957-1.348-3.957zM26.212 7.141c-.02 1.566 1.187 3.129 3.223 3.129 1.566 0 2.383-.918 2.734-1.719L31.172 8c-.315.399-.801 1.094-1.738 1.094-1.145 0-1.825-.781-1.891-1.52h4.625c.074-.284.148-.995-.03-1.559-.336-1.064-1.221-2.102-2.839-2.102s-3.088 1.152-3.088 3.227zm1.363-.75h3.348c-.055-.43-.566-1.301-1.623-1.301a1.79 1.79 0 0 0-1.725 1.301zm-8.758.75c.038 1.758 1.277 3.133 3.145 3.133 1.074 0 1.723-.477 1.961-.672v.547h1.242V1.703h-1.258v2.888c-.414-.36-1.062-.68-1.93-.68-1.91 0-3.198 1.473-3.16 3.23zm1.309-.08c0 1.119.723 1.978 1.836 1.978a1.88 1.88 0 0 0 1.94-1.904c0-1.371-1.011-1.99-1.972-1.99s-1.805.798-1.805 1.916zm76.683-.028C96.771 5.275 95.532 3.9 93.664 3.9c-1.074 0-1.723.477-1.961.672v-.547h-1.242v8.22h1.258V9.583c.414.36 1.063.68 1.93.68 1.91 0 3.198-1.473 3.16-3.23zm-1.309.08c0-1.119-.723-1.978-1.836-1.978a1.88 1.88 0 0 0-1.94 1.904c0 1.371 1.011 1.99 1.972 1.99S95.5 8.231 95.5 7.113zM106.441 10.173V4.036h1.254v.382c.361-.346 1-.485 1.47-.485 1.452 0 2.477 1.082 2.457 2.448v3.792h-1.27V6.492c0-.408-.214-1.339-1.315-1.339-.969 0-1.342.756-1.342 1.339v3.681h-1.254zm-30.383-.021V1.824h1.084l4.215 5.777V1.824h1.32v8.328h-1.094l-4.207-5.796v5.796h-1.319zM5.24 10.149H4V2.377h1.014l2.664 3.597 2.654-3.592h1.03v7.766h-1.256V4.762L7.678 8.068 5.24 4.742v5.407z" transform="translate(469, 359)" fill="#ababab88" stroke="none"></path></svg>