<?xml version="1.0" encoding="utf-8" standalone="yes"?>
<!DOCTYPE svg PUBLIC "-//W3C//DTD SVG 1.1//EN" "http://www.w3.org/Graphics/SVG/1.1/DTD/svg11.dtd">
<svg style="fill:none;stroke:none;fill-rule:evenodd;clip-rule:evenodd;stroke-linecap:round;stroke-linejoin:round;stroke-miterlimit:1.5;" version="1.1" xmlns="http://www.w3.org/2000/svg" xmlns:xlink="http://www.w3.org/1999/xlink" width="774" height="694" viewBox="0 0 774 694"><style class="text-font-style fontImports" data-font-family="Roboto">@import url(https://fonts.googleapis.com/css2?family=Roboto:wght@400;700&amp;amp;display=block);</style><g id="items" style="isolation: isolate"><g id="blend" style="mix-blend-mode: normal"><g id="g-root-cp_0_g-0_59b1315exmh5-fill" data-item-order="-426878" transform="translate(290, 278)"><g id="cp_0_g-0_59b1315exmh5-fill-merged" stroke="none" fill="#e8e8e8" fill-opacity="1"><g><path d="M154.726 152.038 H150.5 V156.163C135.577 169.73 115.754 178 94 178C72.249 178 52.429 169.733 37.511 156.17 V152 H33.194C18.823 136.88 10 116.471 10 94C10 72.249 18.267 52.429 31.83 37.511 H36 V33.187C51.126 18.82 71.533 10 94 10C116.512 10 136.956 18.856 152.037 33.273 V37.5L156.097 37.431C169.703 52.358 178 72.21 178 94C178 116.512 169.144 136.956 154.726 152.038"></path></g></g></g><g id="g-root-cp_4_g-4_59b1315exmh6-fill" data-item-order="-426874" transform="translate(134, 122)"><g id="cp_4_g-4_59b1315exmh6-fill-merged" stroke="none" fill="#ffe711" fill-opacity="1"><g><path d="M158.156 28.269C187.274 16.208 218.483 10 250 10 V93.342C229.427 93.342 209.056 97.394 190.05 105.267C178.263 110.149 167.144 116.442 156.928 123.987L184.146 151.204L192.631 142.719L192 193.5L141.719 193.631L150.205 185.145L123.142 158.083C115.971 167.98 109.966 178.706 105.267 190.05C97.394 209.056 93.342 229.427 93.342 250 H10C10 218.483 16.208 187.274 28.269 158.156C40.33 129.038 58.008 102.58 80.294 80.294C102.58 58.008 129.038 40.33 158.156 28.269"></path></g></g></g><g id="g-root-cp_3_g-3_1luwumv15exnuz-fill" data-item-order="-426866" transform="translate(134, 362)"><g id="cp_3_g-3_1luwumv15exnuz-fill-merged" stroke="none" fill="#1ac3fb" fill-opacity="1"><g><path d="M28.269 101.844C16.208 72.726 10 41.517 10 10 H93.342C93.342 30.573 97.394 50.944 105.267 69.95C110.157 81.757 116.462 92.893 124.024 103.122L151.205 75.941L142.72 67.456L193.5 68L193.631 118.368L185.146 109.882L158.134 136.895C168.017 144.05 178.725 150.042 190.05 154.733C209.056 162.606 229.427 166.658 250 166.658 V250C218.483 250 187.274 243.792 158.156 231.731C129.038 219.67 102.58 201.992 80.294 179.706C58.008 157.42 40.33 130.962 28.269 101.844"></path></g></g></g><g id="g-root-cp_2_g-2_1luwumv15exnv0-fill" data-item-order="-426858" transform="translate(374, 362)"><g id="cp_2_g-2_1luwumv15exnv0-fill-merged" stroke="none" fill="#a6da37" fill-opacity="1"><g><path d="M101.844 231.731C72.726 243.792 41.517 250 10 250 V166.658C30.573 166.658 50.944 162.606 69.95 154.733C81.073 150.126 91.6 144.263 101.336 137.277L74.941 110.882L66.456 119.368 V68L117.368 68.456L108.882 76.941L135.587 103.646C143.322 93.273 149.759 81.958 154.733 69.95C162.606 50.944 166.658 30.573 166.658 10 H250C250 41.517 243.792 72.726 231.731 101.844C219.67 130.962 201.992 157.42 179.706 179.706C157.42 201.992 130.962 219.67 101.844 231.731"></path></g></g></g><g id="g-root-cp_1_g-1_1hf3cif15exon9-fill" data-item-order="-426850" transform="translate(374, 122)"><g id="cp_1_g-1_1hf3cif15exon9-fill-merged" stroke="none" fill="#43dd93" fill-opacity="1"><g><path d="M179.706 80.294C224.714 125.303 250 186.348 250 250 H166.658C166.658 216.8 156.119 184.687 136.895 158.133L110.882 184.146L119.368 192.631L68 193.5L68.456 141.72L76.941 150.205L103.122 124.023C76.328 104.217 43.725 93.342 10 93.342 V10C73.652 10 134.697 35.286 179.706 80.294"></path></g></g></g><g id="g-root-tx__1449b8715exn2e-fill" data-item-order="0" transform="translate(299, 38)"><g id="tx__1449b8715exn2e-fill-merged" stroke="none" fill="#2c2c2c" fill-opacity="1"><g><text style="font: bold 25px Roboto, sans-serif; white-space: pre;" transform="translate(88, 28)" font-weight="bold" font-size="25px" font-family="Roboto, sans-serif"><tspan x="-75" y="15" dominant-baseline="ideographic">教室の価値観</tspan></text></g></g></g><g id="g-root-tx__1cw5gyf15fbqiu-fill" data-item-order="0" transform="translate(134, 122)"><g id="tx__1cw5gyf15fbqiu-fill-merged" stroke="none" fill="#ffe711" fill-opacity="1"><g><text style="font: bold 20px Roboto, sans-serif; white-space: pre;" transform="translate(58, 22)" font-weight="bold" font-size="20px" font-family="Roboto, sans-serif"><tspan x="-42" y="12" dominant-baseline="ideographic">自信</tspan></text></g></g></g><g id="g-root-tx__vahq8n15faaz3-fill" data-item-order="0" transform="translate(572, 122)"><g id="tx__vahq8n15faaz3-fill-merged" stroke="none" fill="#43dd93" fill-opacity="1"><g><text style="font: bold 20px Roboto, sans-serif; white-space: pre;" transform="translate(10, 22)" font-weight="bold" font-size="20px" font-family="Roboto, sans-serif"><tspan x="2" y="12" dominant-baseline="ideographic">安心</tspan></text></g></g></g><g id="g-root-tx__18i7e3b15fbpjj-fill" data-item-order="0" transform="translate(38, 158)"><g id="tx__18i7e3b15fbpjj-fill-merged" stroke="none" fill="#2c2c2c" fill-opacity="1"><g><text style="font: 15px Roboto, sans-serif; white-space: pre;" transform="translate(154, 28)" font-size="15px" font-family="Roboto, sans-serif"><tspan x="-137" y="0" dominant-baseline="ideographic">自己信頼とエンパワ</tspan><tspan x="-61.41" y="18" dominant-baseline="ideographic">ーメント</tspan></text></g></g></g><g id="g-root-tx__8dogn15fabrc-fill" data-item-order="0" transform="translate(572, 158)"><g id="tx__8dogn15fabrc-fill-merged" stroke="none" fill="#2c2c2c" fill-opacity="1"><g><text style="font: 15px Roboto, sans-serif; white-space: pre;" transform="translate(10, 28)" font-size="15px" font-family="Roboto, sans-serif"><tspan x="2" y="0" dominant-baseline="ideographic">安全で快適な学習環</tspan><tspan x="2" y="18" dominant-baseline="ideographic">境</tspan></text></g></g></g><g id="g-root-ic_boy_4mbrbr15exnv3-fill" data-item-order="0" transform="translate(218, 206)"></g><g id="g-root-ic_chec_zoft3r15fabya-fill" data-item-order="0" transform="translate(488, 200)"></g><g id="g-root-tx__1q5qk2f15fbpxp-fill" data-item-order="0" transform="translate(308, 350)"><g id="tx__1q5qk2f15fbpxp-fill-merged" stroke="none" fill="#2c2c2c" fill-opacity="1"><g><text style="font: bold 20px Roboto, sans-serif; white-space: pre;" transform="translate(76, 22)" font-weight="bold" font-size="20px" font-family="Roboto, sans-serif"><tspan x="-60" y="12" dominant-baseline="ideographic">教室の価値観</tspan></text></g></g></g><g id="g-root-ic_1_1d1rqqf15f64g4-fill" data-item-order="0" transform="translate(212, 476)"></g><g id="g-root-ic_root_qn6j2v15f8umj-fill" data-item-order="0" transform="translate(488, 476)"></g><g id="g-root-tx__qtf9xz15fbnr4-fill" data-item-order="0" transform="translate(98, 530)"><g id="tx__qtf9xz15fbnr4-fill-merged" stroke="none" fill="#1ac3fb" fill-opacity="1"><g><text style="font: bold 20px Roboto, sans-serif; white-space: pre;" transform="translate(94, 22)" font-weight="bold" font-size="20px" font-family="Roboto, sans-serif"><tspan x="-82" y="12" dominant-baseline="ideographic">サポート</tspan></text></g></g></g><g id="g-root-tx__1lynp5j15fa9zd-fill" data-item-order="0" transform="translate(572, 530)"><g id="tx__1lynp5j15fa9zd-fill-merged" stroke="none" fill="#a6da37" fill-opacity="1"><g><text style="font: bold 20px Roboto, sans-serif; white-space: pre;" transform="translate(10, 22)" font-weight="bold" font-size="20px" font-family="Roboto, sans-serif"><tspan x="2" y="12" dominant-baseline="ideographic">成長</tspan></text></g></g></g><g id="g-root-tx__147donr15fbpqi-fill" data-item-order="0" transform="translate(86, 566)"><g id="tx__147donr15fbpqi-fill-merged" stroke="none" fill="#2c2c2c" fill-opacity="1"><g><text style="font: 15px Roboto, sans-serif; white-space: pre;" transform="translate(106, 22)" font-size="15px" font-family="Roboto, sans-serif"><tspan x="-92" y="9" dominant-baseline="ideographic">励ましと支援</tspan></text></g></g></g><g id="g-root-tx__18n76s715fabka-fill" data-item-order="0" transform="translate(572, 566)"><g id="tx__18n76s715fabka-fill-merged" stroke="none" fill="#2c2c2c" fill-opacity="1"><g><text style="font: 15px Roboto, sans-serif; white-space: pre;" transform="translate(10, 28)" font-size="15px" font-family="Roboto, sans-serif"><tspan x="2" y="0" dominant-baseline="ideographic">個人的および学術的</tspan><tspan x="2" y="18" dominant-baseline="ideographic">な発展</tspan></text></g></g></g><g id="g-root-cp_0_g-0_59b1315exmh5-stroke" data-item-order="-426878" transform="translate(290, 278)"><g id="cp_0_g-0_59b1315exmh5-stroke" fill="none" stroke-linecap="round" stroke-linejoin="round" stroke-miterlimit="4" stroke="#2c2c2c" stroke-width="2" stroke-opacity="1"><g><path d="M 154.7258 152.0379L 150.5 152L 150.4964 156.1631C 135.5772 169.7303 115.7543 178 94 178C 72.2492 178 52.4293 169.733 37.5109 156.1697L 37.5 152L 33.194 151.9539C 18.8231 136.8803 10 116.4706 10 94C 10 72.2492 18.267 52.4292 31.8303 37.5108L 36 37.5L 36.0536 33.1868C 51.1264 18.8202 71.5332 10 94 10C 116.512 10 136.9556 18.8557 152.0372 33.2735L 152 37.5L 156.0968 37.4307C 169.7033 52.3582 178 72.2102 178 94C 178 116.5123 169.144 136.9562 154.7258 152.0379Z"></path></g></g></g><g id="g-root-cp_4_g-4_59b1315exmh6-stroke" data-item-order="-426874" transform="translate(134, 122)"><g id="cp_4_g-4_59b1315exmh6-stroke" fill="none" stroke-linecap="round" stroke-linejoin="round" stroke-miterlimit="4" stroke="#2c2c2c" stroke-width="2" stroke-opacity="1"><g><path d="M 158.156 28.2689C 187.2741 16.2078 218.4828 10 250 10L 250 93.3422C 229.4274 93.3422 209.0562 97.3943 190.0496 105.267C 178.2629 110.1493 167.1441 116.4416 156.9283 123.9868L 184.1457 151.2042L 192.631 142.7189L 192 193.5L 141.7193 193.6306L 150.2046 185.1453L 123.1422 158.0829C 115.971 167.98 109.966 178.7055 105.267 190.0497C 97.3942 209.0563 93.3422 229.4274 93.3422 250L 10 250C 10 218.4828 16.2078 187.2741 28.2689 158.156C 40.33 129.0379 58.0083 102.5805 80.2944 80.2944C 102.5804 58.0083 129.0378 40.33 158.156 28.2689Z"></path></g></g></g><g id="g-root-cp_3_g-3_1luwumv15exnuz-stroke" data-item-order="-426866" transform="translate(134, 362)"><g id="cp_3_g-3_1luwumv15exnuz-stroke" fill="none" stroke-linecap="round" stroke-linejoin="round" stroke-miterlimit="4" stroke="#2c2c2c" stroke-width="2" stroke-opacity="1"><g><path d="M 28.2689 101.844C 16.2078 72.7259 10 41.5173 10 10L 93.3422 10C 93.3422 30.5726 97.3942 50.9438 105.267 69.9504C 110.1573 81.7565 116.4623 92.8925 124.024 103.1221L 151.2048 75.9413L 142.7196 67.456L 193.5 68L 193.6312 118.3677L 185.146 109.8824L 158.1337 136.8947C 168.0167 144.0496 178.7249 150.0421 190.0496 154.733C 209.0562 162.6058 229.4274 166.6578 250 166.6578L 250 250C 218.4827 250 187.2741 243.7922 158.156 231.7311C 129.0378 219.67 102.5804 201.9917 80.2944 179.7056C 58.0083 157.4196 40.33 130.9622 28.2689 101.844Z"></path></g></g></g><g id="g-root-cp_2_g-2_1luwumv15exnv0-stroke" data-item-order="-426858" transform="translate(374, 362)"><g id="cp_2_g-2_1luwumv15exnv0-stroke" fill="none" stroke-linecap="round" stroke-linejoin="round" stroke-miterlimit="4" stroke="#2c2c2c" stroke-width="2" stroke-opacity="1"><g><path d="M 101.844 231.7311C 72.7259 243.7922 41.5173 250 10 250L 10 166.6578C 30.5726 166.6578 50.9438 162.6057 69.9504 154.733C 81.0728 150.1259 91.6004 144.2633 101.3357 137.2771L 74.9411 110.8825L 66.4558 119.3678L 66.5 68L 117.3675 68.4561L 108.8822 76.9414L 135.5869 103.6461C 143.3217 93.2732 149.7591 81.9584 154.733 69.9504C 162.6058 50.9438 166.6578 30.5726 166.6578 10L 250 10C 250 41.5173 243.7922 72.7259 231.7311 101.844C 219.67 130.9622 201.9917 157.4196 179.7056 179.7056C 157.4196 201.9917 130.9622 219.67 101.844 231.7311Z"></path></g></g></g><g id="g-root-cp_1_g-1_1hf3cif15exon9-stroke" data-item-order="-426850" transform="translate(374, 122)"><g id="cp_1_g-1_1hf3cif15exon9-stroke" fill="none" stroke-linecap="round" stroke-linejoin="round" stroke-miterlimit="4" stroke="#2c2c2c" stroke-width="2" stroke-opacity="1"><g><path d="M 179.7056 80.2944C 224.7143 125.3031 250 186.3481 250 250L 166.6578 250C 166.6578 216.8004 156.1194 184.6874 136.8951 158.1332L 110.8823 184.1461L 119.3676 192.6313L 68 193.5L 68.4559 141.7197L 76.9412 150.2049L 103.1225 124.0235C 76.3281 104.2166 43.7247 93.3422 10 93.3422L 10 10C 73.652 10 134.6969 35.2856 179.7056 80.2944Z"></path></g></g></g><g id="g-root-tx__1449b8715exn2e-stroke" data-item-order="0" transform="translate(299, 38)"></g><g id="g-root-tx__1cw5gyf15fbqiu-stroke" data-item-order="0" transform="translate(134, 122)"></g><g id="g-root-tx__vahq8n15faaz3-stroke" data-item-order="0" transform="translate(572, 122)"></g><g id="g-root-tx__18i7e3b15fbpjj-stroke" data-item-order="0" transform="translate(38, 158)"></g><g id="g-root-tx__8dogn15fabrc-stroke" data-item-order="0" transform="translate(572, 158)"></g><g id="g-root-ic_boy_4mbrbr15exnv3-stroke" data-item-order="0" transform="translate(218, 206)"><g id="ic_boy_4mbrbr15exnv3-stroke" fill="none" stroke-linecap="round" stroke-linejoin="round" stroke-miterlimit="4" stroke="#2c2c2c" stroke-width="2" stroke-opacity="1"><g><path d="M 33.799999 25.499981C 37.666 25.499981 40.799999 22.36598 40.799999 18.499981C 40.799999 14.634 37.666 11.499984 33.799999 11.499984C 29.934 11.499984 26.79998 14.634 26.79998 18.499981C 26.79998 22.36598 29.934 25.499981 33.799999 25.499981ZM 37.599998 30.9C 38.400002 30.9 39.200001 30.5 39.799999 30.1L 46.200001 23.700001C 47 22.9 48 22.5 49 22.5C 50 22.5 51 22.9 51.799999 23.700001C 53.400002 25.299999 53.400002 27.700001 51.799999 29.1L 42 38.900002L 42 52.5C 42 54.700001 40.200001 56.5 38 56.5C 35.799999 56.5 34 54.700001 34 52.5L 34 51.900002C 34 54.099998 32.200001 55.900002 29.999981 55.900002C 27.79998 55.900002 25.999981 54.099998 25.999981 51.900002L 25.999981 38.5L 16.200001 29.099979C 14.6 27.499981 14.6 25.099979 16.200001 23.69998C 17 22.899979 17.999981 22.49996 18.999981 22.49996C 19.999981 22.49996 20.999981 22.899979 21.79998 23.69998L 28.200001 30.1C 28.799999 30.700001 29.59996 30.9 30.4 30.9L 37.599998 30.9ZM 34 51.900002L 34 45.5"></path></g></g></g><g id="g-root-ic_chec_zoft3r15fabya-stroke" data-item-order="0" transform="translate(488, 200)"><g id="ic_chec_zoft3r15fabya-stroke" fill="none" stroke-linecap="round" stroke-linejoin="round" stroke-miterlimit="4" stroke="#2c2c2c" stroke-width="2" stroke-opacity="1"><g><path d="M 45 24L 32.93 41.464001L 23.774 32.304001M 14 17.549999L 14 32.823997C 13.983479 42.968212 20.202927 52.079685 29.656 55.759998L 31.790001 56.588001C 33.211998 57.138035 34.788002 57.138035 36.209999 56.588001L 38.344002 55.759998C 47.797073 52.079685 54.016521 42.968212 54 32.823997L 54 17.549999C 54.009754 16.344622 53.313648 15.244927 52.220001 14.738001C 46.47974 12.216312 40.269463 10.942217 34 11C 27.730537 10.942217 21.52026 12.216312 15.78 14.738C 14.686356 15.244927 13.990248 16.344622 14 17.549999Z"></path></g></g></g><g id="g-root-tx__1q5qk2f15fbpxp-stroke" data-item-order="0" transform="translate(308, 350)"></g><g id="g-root-ic_1_1d1rqqf15f64g4-stroke" data-item-order="0" transform="translate(212, 476)"><g id="ic_1_1d1rqqf15f64g4-stroke" fill="none" stroke-linecap="round" stroke-linejoin="round" stroke-miterlimit="4" stroke="#2c2c2c" stroke-width="2" stroke-opacity="1"><g><path d="M 28.736679 42.6012C 32.1968 42.6012 35.001801 39.7962 35.001801 36.335999C 35.001801 32.875999 32.1968 30.070999 28.736679 30.070999C 25.276581 30.070999 22.471619 32.875999 22.471619 36.335999C 22.471619 39.7962 25.276581 42.6012 28.736679 42.6012ZM 34.1068 56.25L 34.1068 53.207001L 44.309799 43.003799C 45.383801 41.929802 45.383801 40.318802 44.309799 39.244801C 43.235802 38.170799 41.624802 38.170799 40.5508 39.244801L 33.927601 45.867802C 33.390602 46.4048 32.674599 46.583801 31.958599 46.583801L 25.15662 46.583801C 24.44062 46.583801 23.7246 46.2258 23.187599 45.867802L 16.56456 39.244801C 15.49054 38.170799 13.87952 38.170799 12.8055 39.244801C 11.731498 40.318802 11.731498 41.929802 12.8055 43.003799L 23.008579 53.207001L 23.008579 56.25M 36.728001 20.689381L 29.158541 25.059639C 27.42836 26.058559 25.0404 25.41872 24.041481 23.688541C 23.04258 21.958359 23.682419 19.5704 25.4126 18.57148L 35.793602 12.57798C 37.956398 11.329334 40.618599 10.945776 43.098 11.24449L 50.785801 12.57318L 56.428001 12.57318M 10 10M 56.467201 22.4135L 49.979 26.159439C 48.0326 27.28322 45.711399 27.758141 43.5732 27.55084L 38.523003 27.29454C 36.5098 27.303499 34.9534 25.606781 35.160599 23.468559C 35.2766 21.671459 36.757 20.24 38.429199 20.13962L 44.935398 20.42046"></path></g></g></g><g id="g-root-ic_root_qn6j2v15f8umj-stroke" data-item-order="0" transform="translate(488, 476)"><g id="ic_root_qn6j2v15f8umj-stroke" fill="none" stroke-linecap="round" stroke-linejoin="round" stroke-miterlimit="4" stroke="#2c2c2c" stroke-width="2" stroke-opacity="1"><g><path d="M 11 34.031998L 57 34.031998M 54.368 13.032C 54.368 13.032 49.125999 26.444 41.200001 23.348C 39.201344 22.609142 37.757355 20.848717 37.423691 18.744146C 37.090031 16.639576 37.91869 14.518841 39.590801 13.19801C 41.262909 11.877179 43.517887 11.562094 45.488003 12.374001C 48.366005 13.230644 51.395168 13.455102 54.368 13.032ZM 35 23.032C 37.454308 19.563122 41.403919 17.458542 45.652 17.355999M 15.632 13.032C 15.632 13.032 20.872 26.444 28.799999 23.348C 30.790848 22.603203 32.226196 20.843826 32.556091 18.743977C 32.885986 16.644127 32.059277 14.529372 30.392721 13.209983C 28.726164 11.890594 26.478148 11.571133 24.510002 12.374001C 21.632627 13.230354 18.604179 13.45481 15.632 13.032ZM 24.348 17.355999C 28.596083 17.458542 32.545696 19.563122 35 23.032001L 35 56.032001M 35 48.032001L 31 48.032001C 29.89543 48.032001 29 48.927429 29 50.032001L 29 54.032001M 43 54.032001L 43 45.032001C 43 43.375145 41.656853 42.032001 40 42.032001L 27 42.032001C 24.793596 42.038589 23.00659 43.825596 23 46.032001L 23 53.032001M 43 48.032001L 45 48.032001C 46.104568 48.032001 47 48.927429 47 50.032001L 47 52.032001M 23 47.032001L 19 49.032001"></path></g></g></g><g id="g-root-tx__qtf9xz15fbnr4-stroke" data-item-order="0" transform="translate(98, 530)"></g><g id="g-root-tx__1lynp5j15fa9zd-stroke" data-item-order="0" transform="translate(572, 530)"></g><g id="g-root-tx__147donr15fbpqi-stroke" data-item-order="0" transform="translate(86, 566)"></g><g id="g-root-tx__18n76s715fabka-stroke" data-item-order="0" transform="translate(572, 566)"></g></g></g><path id="w1lzaftz17d1ukt" d="M65.283 12.757a.35.35 0 0 0 .584.157l5.203-5.141-6.183 3.523.396 1.461zm-2.216-11.7a.35.35 0 0 0-.522.305v3.111l3.276-1.868-2.754-1.548zm3.728 2.105l-4.25 2.421v2.445l6.391-3.644-2.141-1.222zm4.708 3.303a.35.35 0 0 0 0-.609l-1.592-.9-7.365 4.199v1.782a.35.35 0 0 0 .523.305l8.435-4.777z M44.542 2.513c0-.433.355-.783.792-.783s.792.35.792.783-.355.783-.792.783-.792-.35-.792-.783zm59.171 0c0-.433.355-.783.792-.783s.792.35.792.783-.355.783-.792.783-.792-.35-.792-.783zm-85.951 7.636h-1.27v-.487c-.276.201-.864.609-1.881.609-1.202 0-2.274-.794-2.137-2.078.118-1.106 1.153-1.584 1.848-1.727l2.17-.345c0-.539-.29-.956-1.064-1.006s-1.21.305-1.571 1.017l-1.124-.605c1.218-2.631 5.029-1.764 5.029.414v4.207zm-1.27-2.86c.006.396-.062 1.112-.819 1.59-.587.37-1.841.299-1.903-.395-.049-.555.461-.791.906-.898l1.816-.297zm72.662 2.86h-1.27v-.487c-.276.201-.864.609-1.881.609-1.202 0-2.274-.794-2.137-2.078.118-1.106 1.153-1.584 1.848-1.727l2.17-.345c0-.539-.29-.956-1.064-1.006s-1.21.305-1.571 1.017l-1.124-.605c1.218-2.631 5.029-1.764 5.029.414v4.207zm-1.27-2.86c.006.396-.062 1.112-.82 1.59-.587.37-1.841.299-1.903-.395-.049-.555.461-.791.906-.898l1.816-.297zM99.096 10.149H97.85v-8.45h1.246v4.895l2.68-2.559h1.738l-2.633 2.535 2.715 3.578h-1.556l-2.077-2.707-.867.844v1.863zm6.053-6.114h-1.255v6.113h1.255V4.035zm-59.2 0h-1.255v6.113h1.255V4.035zm5.584 6.113V1.697h1.255v2.695c.361-.346 1-.485 1.47-.485 1.452 0 2.477 1.082 2.457 2.448v3.792h-1.27v-3.68c0-.408-.214-1.339-1.315-1.339-.968 0-1.342.756-1.342 1.339v3.681h-1.255zm-4.76-4.894V4.039h.621a.45.45 0 0 0 .45-.45v-.855h1.251v1.305h1.309v1.215h-1.309v3.109c0 .293.105.664.648.664.365 0 .531-.035.736-.07v1.137s-.361.113-.857.113c-1.398 0-1.777-1.051-1.777-1.788V5.254h-1.071zM36.528 4.039h-1.394l2.191 6.106h1.125l1.234-3.918 1.238 3.918h1.129l2.188-6.106h-1.383l-1.359 3.93-1.256-3.93h-1.124l-1.242 3.957-1.348-3.957zM26.212 7.141c-.02 1.566 1.187 3.129 3.223 3.129 1.566 0 2.383-.918 2.734-1.719L31.172 8c-.315.399-.801 1.094-1.738 1.094-1.145 0-1.825-.781-1.891-1.52h4.625c.074-.284.148-.995-.03-1.559-.336-1.064-1.221-2.102-2.839-2.102s-3.088 1.152-3.088 3.227zm1.363-.75h3.348c-.055-.43-.566-1.301-1.623-1.301a1.79 1.79 0 0 0-1.725 1.301zm-8.758.75c.038 1.758 1.277 3.133 3.145 3.133 1.074 0 1.723-.477 1.961-.672v.547h1.242V1.703h-1.258v2.888c-.414-.36-1.062-.68-1.93-.68-1.91 0-3.198 1.473-3.16 3.23zm1.309-.08c0 1.119.723 1.978 1.836 1.978a1.88 1.88 0 0 0 1.94-1.904c0-1.371-1.011-1.99-1.972-1.99s-1.805.798-1.805 1.916zm76.683-.028C96.771 5.275 95.532 3.9 93.664 3.9c-1.074 0-1.723.477-1.961.672v-.547h-1.242v8.22h1.258V9.583c.414.36 1.063.68 1.93.68 1.91 0 3.198-1.473 3.16-3.23zm-1.309.08c0-1.119-.723-1.978-1.836-1.978a1.88 1.88 0 0 0-1.94 1.904c0 1.371 1.011 1.99 1.972 1.99S95.5 8.231 95.5 7.113zM106.441 10.173V4.036h1.254v.382c.361-.346 1-.485 1.47-.485 1.452 0 2.477 1.082 2.457 2.448v3.792h-1.27V6.492c0-.408-.214-1.339-1.315-1.339-.969 0-1.342.756-1.342 1.339v3.681h-1.254zm-30.383-.021V1.824h1.084l4.215 5.777V1.824h1.32v8.328h-1.094l-4.207-5.796v5.796h-1.319zM5.24 10.149H4V2.377h1.014l2.664 3.597 2.654-3.592h1.03v7.766h-1.256V4.762L7.678 8.068 5.24 4.742v5.407z" transform="translate(638, 660)" fill="#ababab88" stroke="none"></path></svg>